<svg xmlns="http://www.w3.org/2000/svg" viewBox="0 0 579 579">
  <!-- Diamond Background (White) -->
  <path d="m25 290 264 264 264-264L289 26 25 290z" fill="#fff"/>
  <!-- Diamond Border (Red) -->
  <path d="M148 148 6 290l142 141 141 142 142-142 142-141-142-142L289 6 148 148zm261 22 119 120-119 119-120 119-119-119L51 290l119-120L289 51l120 119z" fill="red"/>
  <!-- Skull and Crossbones (Black, GHS-compliant design) -->
  <g transform="translate(100, 100) scale(0.65)" fill="#111">
    <!-- Bones (Upper Left to Lower Right) -->
    <path d="M78 40c-25 0-38 22-38 38s13 38 38 38c10 0 20-3 26-9l200 200c-6 6-9 16-9 26c0 25 22 38 38 38s38-13 38-38c0-10-3-20-9-26L163 103c6-6 9-16 9-26c0-25-22-38-38-38c-16 0-26 9-32 15L78 40z"/>
    <!-- Bones (Upper Right to Lower Left) -->
    <path d="M486 40c-16 0-26 9-32 15L254 255c-6-6-16-9-26-9c-25 0-38 22-38 38s13 38 38 38c10 0 20-3 26-9l200 200c6 6 16 9 26 9c25 0 38-22 38-38s-13-38-38-38c-10 0-20 3-26 9L316 103c6-6 9-16 9-26c0-25-22-38-38-38z"/>
    <!-- Skull Head -->
    <path d="M282 80c-78 0-141 61-141 137c0 37 15 70 39 94l-14 77c-2 11 7 20 18 18l69-14c9 3 19 5 29 5c78 0 141-61 141-137S360 80 282 80z M224 235c-15 0-28-13-28-28s13-28 28-28s28 13 28 28S239 235 224 235z M340 235c-15 0-28-13-28-28s13-28 28-28s28 13 28 28S355 235 340 235z M282 290l-20-25h40L282 290z M240 330h84v20h-84V330z M250 355h64v10h-64V355z"/>
  </g>
</svg>
